<?xml version="1.0" encoding="UTF-8" standalone="no"?>
<!DOCTYPE svg PUBLIC "-//W3C//DTD SVG 1.1//EN"
 "http://www.w3.org/Graphics/SVG/1.1/DTD/svg11.dtd">
<!-- Generated by graphviz version 2.40.1 (20161225.0304)
 -->
<!-- Title: %3 Pages: 1 -->
<svg width="432pt" height="225pt"
 viewBox="0.00 0.00 432.00 225.14" xmlns="http://www.w3.org/2000/svg" xmlns:xlink="http://www.w3.org/1999/xlink">
<g id="graph0" class="graph" transform="scale(.8182 .8182) rotate(0) translate(4 271.1665)">
<title>%3</title>
<polygon fill="#ffffff" stroke="transparent" points="-4,4 -4,-271.1665 524,-271.1665 524,4 -4,4"/>
<!-- L -->
<g id="node1" class="node">
<title>L</title>
<ellipse fill="#add8e6" stroke="#000000" cx="90" cy="-162.0416" rx="55.7232" ry="24.0833"/>
<text text-anchor="middle" x="90" y="-165.4416" font-family="Times,serif" font-size="12.00" fill="#000000">Do you eat it</text>
<text text-anchor="middle" x="90" y="-152.4416" font-family="Times,serif" font-size="12.00" fill="#000000">with eggs?</text>
</g>
<!-- LL -->
<g id="node2" class="node">
<title>LL</title>
<polygon fill="#ffffe0" stroke="#000000" points="56,-105 0,-105 0,-69 56,-69 56,-105"/>
<text text-anchor="middle" x="28" y="-83.9" font-family="Times,serif" font-size="12.00" fill="#000000">a mouse</text>
</g>
<!-- L&#45;&gt;LL -->
<g id="edge1" class="edge">
<title>L&#45;&gt;LL</title>
<path fill="none" stroke="#000000" d="M71.0611,-139.1189C64.2604,-130.8877 56.5422,-121.5461 49.5371,-113.0674"/>
<polygon fill="#000000" stroke="#000000" points="52.1602,-110.7472 43.0926,-105.2673 46.7638,-115.2058 52.1602,-110.7472"/>
<text text-anchor="middle" x="70" y="-117.8" font-family="Times,serif" font-size="14.00" fill="#000000">No</text>
</g>
<!-- LM -->
<!-- L&#45;&gt;LM -->
<!-- LR -->
<g id="node4" class="node">
<title>LR</title>
<polygon fill="#ffffe0" stroke="#000000" points="178,-105 124,-105 124,-69 178,-69 178,-105"/>
<text text-anchor="middle" x="151" y="-83.9" font-family="Times,serif" font-size="12.00" fill="#000000">spam</text>
</g>
<!-- L&#45;&gt;LR -->
<g id="edge3" class="edge">
<title>L&#45;&gt;LR</title>
<path fill="none" stroke="#000000" d="M108.6335,-139.1189C115.3245,-130.8877 122.9181,-121.5461 129.8103,-113.0674"/>
<polygon fill="#000000" stroke="#000000" points="132.559,-115.2347 136.1509,-105.2673 127.1272,-110.8193 132.559,-115.2347"/>
<text text-anchor="middle" x="139" y="-117.8" font-family="Times,serif" font-size="14.00" fill="#000000">Yes</text>
</g>
<!-- M -->
<!-- R -->
<g id="node6" class="node">
<title>R</title>
<ellipse fill="#add8e6" stroke="#000000" cx="301" cy="-162.0416" rx="64.1938" ry="24.0833"/>
<text text-anchor="middle" x="301" y="-165.4416" font-family="Times,serif" font-size="12.00" fill="#000000">Is it worth</text>
<text text-anchor="middle" x="301" y="-152.4416" font-family="Times,serif" font-size="12.00" fill="#000000">a lot of money?</text>
</g>
<!-- RL -->
<g id="node7" class="node">
<title>RL</title>
<polygon fill="#ffffe0" stroke="#000000" points="266.5,-105 185.5,-105 185.5,-69 266.5,-69 266.5,-105"/>
<text text-anchor="middle" x="226" y="-83.9" font-family="Times,serif" font-size="12.00" fill="#000000">a bag of trash</text>
</g>
<!-- R&#45;&gt;RL -->
<g id="edge4" class="edge">
<title>R&#45;&gt;RL</title>
<path fill="none" stroke="#000000" d="M278.09,-139.1189C269.6938,-130.718 260.1414,-121.1604 251.5299,-112.5441"/>
<polygon fill="#000000" stroke="#000000" points="253.8019,-109.8661 244.2571,-105.2673 248.8507,-114.8145 253.8019,-109.8661"/>
<text text-anchor="middle" x="275" y="-117.8" font-family="Times,serif" font-size="14.00" fill="#000000">No</text>
</g>
<!-- RM -->
<!-- R&#45;&gt;RM -->
<!-- RR -->
<g id="node9" class="node">
<title>RR</title>
<ellipse fill="#add8e6" stroke="#000000" cx="402" cy="-87" rx="67.1981" ry="18"/>
<text text-anchor="middle" x="402" y="-83.9" font-family="Times,serif" font-size="12.00" fill="#000000">Does it write code?</text>
</g>
<!-- R&#45;&gt;RR -->
<g id="edge6" class="edge">
<title>R&#45;&gt;RR</title>
<path fill="none" stroke="#000000" d="M329.9425,-140.5377C342.7576,-131.0163 357.8527,-119.8008 370.9071,-110.1016"/>
<polygon fill="#000000" stroke="#000000" points="373.207,-112.7531 379.1466,-103.9798 369.0323,-107.1343 373.207,-112.7531"/>
<text text-anchor="middle" x="375" y="-117.8" font-family="Times,serif" font-size="14.00" fill="#000000">Yes</text>
</g>
<!-- RRL -->
<g id="node10" class="node">
<title>RRL</title>
<polygon fill="#ffffe0" stroke="#000000" points="368,-36 314,-36 314,0 368,0 368,-36"/>
<text text-anchor="middle" x="341" y="-14.9" font-family="Times,serif" font-size="12.00" fill="#000000">a house</text>
</g>
<!-- RR&#45;&gt;RRL -->
<g id="edge7" class="edge">
<title>RR&#45;&gt;RRL</title>
<path fill="none" stroke="#000000" d="M386.291,-69.2308C379.5497,-61.6054 371.5364,-52.5412 364.1378,-44.1723"/>
<polygon fill="#000000" stroke="#000000" points="366.5399,-41.6051 357.2943,-36.4312 361.2955,-46.2415 366.5399,-41.6051"/>
<text text-anchor="middle" x="386" y="-48.8" font-family="Times,serif" font-size="14.00" fill="#000000">No</text>
</g>
<!-- RRM -->
<!-- RR&#45;&gt;RRM -->
<!-- RRR -->
<g id="node12" class="node">
<title>RRR</title>
<polygon fill="#ffffe0" stroke="#000000" points="520,-36 436,-36 436,0 520,0 520,-36"/>
<text text-anchor="middle" x="478" y="-14.9" font-family="Times,serif" font-size="12.00" fill="#000000">a programmer</text>
</g>
<!-- RR&#45;&gt;RRR -->
<g id="edge9" class="edge">
<title>RR&#45;&gt;RRR</title>
<path fill="none" stroke="#000000" d="M421.178,-69.5884C430.0606,-61.5239 440.7789,-51.7928 450.5018,-42.9655"/>
<polygon fill="#000000" stroke="#000000" points="452.9807,-45.4422 458.0319,-36.1289 448.2754,-40.2595 452.9807,-45.4422"/>
<text text-anchor="middle" x="458" y="-48.8" font-family="Times,serif" font-size="14.00" fill="#000000">Yes</text>
</g>
<!-- 0 -->
<g id="node13" class="node">
<title>0</title>
<ellipse fill="#add8e6" stroke="#000000" cx="192" cy="-243.1249" rx="65.1077" ry="24.0833"/>
<text text-anchor="middle" x="192" y="-246.5249" font-family="Times,serif" font-size="12.00" fill="#000000">Is it bigger than</text>
<text text-anchor="middle" x="192" y="-233.5249" font-family="Times,serif" font-size="12.00" fill="#000000">a breadbox?</text>
</g>
<!-- 0&#45;&gt;L -->
<g id="edge10" class="edge">
<title>0&#45;&gt;L</title>
<path fill="none" stroke="#000000" d="M164.3973,-221.1826C152.2978,-211.5643 137.9551,-200.1628 125.1074,-189.9497"/>
<polygon fill="#000000" stroke="#000000" points="126.9252,-186.9236 116.9192,-183.4406 122.5692,-192.4032 126.9252,-186.9236"/>
<text text-anchor="middle" x="160" y="-198.8833" font-family="Times,serif" font-size="14.00" fill="#000000">No</text>
</g>
<!-- 0&#45;&gt;M -->
<!-- 0&#45;&gt;R -->
<g id="edge12" class="edge">
<title>0&#45;&gt;R</title>
<path fill="none" stroke="#000000" d="M221.21,-221.3961C234.2656,-211.6843 249.809,-200.1218 263.6936,-189.7932"/>
<polygon fill="#000000" stroke="#000000" points="266.1528,-192.3261 272.0873,-183.5493 261.9748,-186.7096 266.1528,-192.3261"/>
<text text-anchor="middle" x="268" y="-198.8833" font-family="Times,serif" font-size="14.00" fill="#000000">Yes</text>
</g>
</g>
</svg>
